<?xml version="1.0" encoding="UTF-8" standalone="no"?>
<!-- Created with Inkscape (http://www.inkscape.org/) -->

<svg
   width="34.926556mm"
   height="35.09243mm"
   viewBox="0 0 34.926556 35.09243"
   version="1.1"
   id="svg1"
   inkscape:version="1.3.2 (091e20ef0f, 2023-11-25)"
   sodipodi:docname="JADE_Icon-src.svgz"
   inkscape:export-filename="JADE25_Icon.svg"
   inkscape:export-xdpi="200"
   inkscape:export-ydpi="200"
   xmlns:inkscape="http://www.inkscape.org/namespaces/inkscape"
   xmlns:sodipodi="http://sodipodi.sourceforge.net/DTD/sodipodi-0.dtd"
   xmlns="http://www.w3.org/2000/svg"
   xmlns:svg="http://www.w3.org/2000/svg">
  <sodipodi:namedview
     id="namedview1"
     pagecolor="#ffffff"
     bordercolor="#000000"
     borderopacity="0.25"
     inkscape:showpageshadow="2"
     inkscape:pageopacity="0.0"
     inkscape:pagecheckerboard="true"
     inkscape:deskcolor="#d1d1d1"
     inkscape:document-units="mm"
     inkscape:clip-to-page="true"
     inkscape:zoom="5.6290382"
     inkscape:cx="78.077282"
     inkscape:cy="76.389604"
     inkscape:window-width="2552"
     inkscape:window-height="1411"
     inkscape:window-x="0"
     inkscape:window-y="0"
     inkscape:window-maximized="1"
     inkscape:current-layer="g2" />
  <defs
     id="defs1" />
  <g
     inkscape:label="Nvidia green"
     inkscape:groupmode="layer"
     id="layer1"
     transform="translate(-79.110416,-64.028796)"
     style="display:none">
    <path
       id="path1"
       style="display:inline;fill:#76b900;fill-opacity:1;stroke-width:0.259676"
       d="m 80.974902,64.028796 c -1.033076,0 -1.864486,0.83141 -1.864486,1.864485 v 31.363461 c 0,1.033075 0.83141,1.864486 1.864486,1.864486 H 95.85048 c 0,0 2.845855,-3.928931 3.19412,-5.509742 0.404495,-1.836041 -0.997676,-2.872817 -0.470772,-4.563546 0.709097,-2.27535 10.990402,-5.31928 15.463142,-6.963916 V 65.893281 c 0,-1.033075 -0.83193,-1.864485 -1.86501,-1.864485 z M 112.9652,86.392805 c -1.77779,0.08742 -6.00071,3.102962 -8.38138,6.245952 -1.33351,1.760529 -1.23252,6.257514 -2.48454,6.478166 2.02059,-0.0241 6.7585,0.0038 10.07268,0.0043 1.03308,1.23e-4 1.86501,-0.83141 1.86501,-1.864486 l -0.005,-4.897375 5.2e-4,-4.764567 c 0,0 -0.11711,-1.012261 -0.74776,-1.175122 -0.0939,-0.02426 -0.20084,-0.0327 -0.31936,-0.02687 z"
       sodipodi:nodetypes="sssscsscssssscscccsss" />
  </g>
  <g
     inkscape:label="Oxford Red"
     inkscape:groupmode="layer"
     id="g2"
     transform="translate(-79.110416,-64.028796)"
     style="display:inline">
    <path
       id="path2"
       style="display:inline;fill:#aa1a2d;fill-opacity:1;stroke-width:0.259676"
       d="m 80.974902,64.028796 c -1.033076,0 -1.864486,0.83141 -1.864486,1.864485 v 31.363461 c 0,1.033075 0.83141,1.864486 1.864486,1.864486 H 95.85048 c 0,0 2.845855,-3.928931 3.19412,-5.509742 0.404495,-1.836041 -0.997676,-2.872817 -0.470772,-4.563546 0.709097,-2.27535 10.990402,-5.31928 15.463142,-6.963916 V 65.893281 c 0,-1.033075 -0.83193,-1.864485 -1.86501,-1.864485 z M 112.9652,86.392805 c -1.77779,0.08742 -6.00071,3.102962 -8.38138,6.245952 -1.33351,1.760529 -1.23252,6.257514 -2.48454,6.478166 2.02059,-0.0241 6.7585,0.0038 10.07268,0.0043 1.03308,1.23e-4 1.86501,-0.83141 1.86501,-1.864486 l -0.005,-4.897375 5.2e-4,-4.764567 c 0,0 -0.11711,-1.012261 -0.74776,-1.175122 -0.0939,-0.02426 -0.20084,-0.0327 -0.31936,-0.02687 z"
       sodipodi:nodetypes="sssscsscssssscscccsss" />
  </g>
</svg>
