<?xml version="1.0" encoding="UTF-8"?>
<svg xmlns="http://www.w3.org/2000/svg" xmlns:xlink="http://www.w3.org/1999/xlink" width="675" height="177" viewBox="0 0 675 177">
<path fill-rule="nonzero" fill="rgb(0%, 0%, 0%)" fill-opacity="1" d="M 134.863281 129.601562 C 162.101562 129.601562 170.019531 121.28125 170.019531 98.203125 L 170.019531 38.085938 L 149.621094 38.085938 L 149.621094 97.261719 C 149.621094 107.996094 146.402344 112.15625 133.253906 112.15625 L 111.113281 112.15625 L 111.113281 129.601562 Z M 286.488281 129.601562 L 310.101562 129.601562 L 257.234375 45.0625 C 254.015625 39.832031 250.125 36.074219 241.9375 36.074219 C 233.621094 36.074219 229.726562 39.832031 226.507812 45.0625 L 173.371094 129.601562 L 196.855469 129.601562 L 209.871094 108.535156 L 273.203125 108.535156 Z M 241.535156 56.738281 L 263.675781 92.832031 L 219.394531 92.832031 Z M 391.550781 129.601562 C 418.789062 129.601562 426.707031 121.28125 426.707031 98.203125 L 426.707031 69.484375 C 426.707031 46.40625 418.789062 38.085938 391.550781 38.085938 L 319.09375 38.085938 L 319.09375 129.601562 Z M 406.308594 97.53125 C 406.308594 109.070312 401.746094 112.15625 390.746094 112.15625 L 339.488281 112.15625 L 339.488281 55.664062 L 390.746094 55.664062 C 402.820312 55.664062 406.308594 59.152344 406.308594 70.425781 Z M 539.953125 129.601562 L 539.953125 112.289062 L 476.085938 112.289062 C 464.140625 112.289062 461.457031 109.339844 461.457031 98.335938 L 461.457031 91.894531 L 539.417969 91.894531 L 539.417969 75.65625 L 461.457031 75.65625 L 461.457031 69.484375 C 461.457031 58.886719 464.277344 55.394531 476.085938 55.394531 L 498.625 55.394531 L 498.625 38.085938 L 476.085938 38.085938 C 449.113281 38.085938 441.195312 46.40625 441.195312 69.484375 L 441.195312 98.203125 C 441.195312 121.28125 449.113281 129.601562 476.085938 129.601562 Z M 539.953125 129.601562 "/>
<path fill-rule="nonzero" fill="rgb(0%, 12.940979%, 27.842712%)" fill-opacity="1" d="M 576.488281 55.296875 L 576.488281 44.839844 L 521.761719 44.839844 L 521.761719 38.191406 C 521.761719 33.324219 523.300781 31.945312 528.328125 31.945312 L 560.515625 31.945312 C 572.679688 31.945312 576.488281 28.703125 576.488281 18.40625 L 576.488281 15.648438 C 576.488281 4.296875 571.707031 0 560.839844 0 L 539.761719 0 L 539.761719 10.460938 L 560.03125 10.460938 C 564.003906 10.460938 565.136719 11.675781 565.136719 15.972656 L 565.136719 17.351562 C 565.136719 21.40625 564.003906 22.621094 559.707031 22.621094 L 527.761719 22.621094 C 513.816406 22.621094 510.492188 27.242188 510.492188 37.703125 L 510.492188 55.296875 Z M 593.757812 55.296875 C 596.839844 55.296875 597.976562 54.242188 597.976562 51.648438 L 597.976562 45 C 597.976562 42.488281 596.839844 41.351562 593.757812 41.351562 L 589.785156 41.351562 C 586.785156 41.351562 585.652344 42.488281 585.652344 45 L 585.652344 51.648438 C 585.652344 54.242188 586.785156 55.296875 589.785156 55.296875 Z M 657.8125 55.296875 C 670.296875 55.296875 675 51.164062 675 40.703125 L 675 35.757812 C 675 25.539062 670.296875 21.566406 657.8125 21.566406 L 618.8125 21.566406 L 618.8125 10.460938 L 647.675781 10.460938 L 647.675781 0 L 607.542969 0 L 607.542969 31.136719 L 657.164062 31.136719 C 662.351562 31.136719 663.730469 33 663.730469 36.40625 L 663.730469 39.972656 C 663.730469 43.703125 662.269531 44.839844 656.675781 44.839844 L 607.625 44.839844 L 607.625 55.296875 Z M 657.8125 55.296875 "/>
<path fill-rule="nonzero" fill="rgb(0%, 0%, 0%)" fill-opacity="1" d="M 333.832031 171.574219 L 333.832031 153.121094 L 343.4375 153.121094 L 343.4375 148.734375 L 319.085938 148.734375 L 319.085938 153.121094 L 328.691406 153.121094 L 328.691406 171.574219 Z M 368.496094 164.339844 L 368.496094 158.378906 C 368.496094 155.5 367.050781 153.421875 361.84375 153.421875 L 353.046875 153.421875 C 346.628906 153.421875 344.78125 155.199219 344.78125 160.488281 L 344.78125 164.675781 C 344.78125 169.5 347.03125 171.574219 352.808594 171.574219 L 358.722656 171.574219 L 358.722656 167.789062 L 352.808594 167.789062 C 350.457031 167.789062 349.785156 167.386719 349.785156 165.179688 L 349.785156 164.339844 Z M 363.492188 161.125 L 349.785156 161.125 L 349.785156 160.15625 C 349.785156 157.542969 350.59375 157.273438 353.113281 157.273438 L 361.441406 157.273438 C 362.953125 157.273438 363.492188 157.574219 363.492188 158.78125 Z M 393.890625 171.574219 L 393.890625 167.355469 L 380.855469 167.355469 C 377.734375 167.355469 376.960938 166.484375 376.960938 163.605469 L 376.960938 161.460938 C 376.960938 158.480469 377.699219 157.710938 380.855469 157.710938 L 393.855469 157.710938 L 393.855469 153.421875 L 380.6875 153.421875 C 373.9375 153.421875 371.957031 155.5 371.957031 161.292969 L 371.957031 163.738281 C 371.957031 169.5 373.9375 171.574219 380.6875 171.574219 Z M 421.433594 171.574219 L 421.433594 161.292969 C 421.433594 155.5 419.449219 153.421875 412.632812 153.421875 L 402.523438 153.421875 L 402.523438 147.5625 L 397.515625 147.5625 L 397.515625 171.574219 L 402.523438 171.574219 L 402.523438 157.710938 L 412.5 157.710938 C 415.589844 157.710938 416.429688 158.414062 416.429688 161.460938 L 416.429688 171.574219 Z M 448.773438 171.574219 L 448.773438 161.292969 C 448.773438 155.5 446.792969 153.421875 440.007812 153.421875 L 433.929688 153.421875 C 427.175781 153.421875 425.195312 155.5 425.195312 161.292969 L 425.195312 171.574219 L 430.199219 171.574219 L 430.199219 161.460938 C 430.199219 158.445312 431.105469 157.710938 434.265625 157.710938 L 439.707031 157.710938 C 442.929688 157.710938 443.769531 158.445312 443.769531 161.460938 L 443.769531 171.574219 Z M 467.28125 171.574219 C 474.066406 171.574219 476.050781 169.5 476.050781 163.738281 L 476.050781 161.328125 C 476.050781 155.5 474.066406 153.421875 467.28125 153.421875 L 461.203125 153.421875 C 454.449219 153.421875 452.46875 155.5 452.46875 161.292969 L 452.46875 163.738281 C 452.46875 169.5 454.449219 171.574219 461.203125 171.574219 Z M 471.042969 163.605469 C 471.042969 166.617188 470.238281 167.355469 466.609375 167.355469 L 461.875 167.355469 C 458.3125 167.355469 457.472656 166.617188 457.472656 163.605469 L 457.472656 161.460938 C 457.472656 158.378906 458.3125 157.710938 461.875 157.710938 L 466.609375 157.710938 C 470.238281 157.710938 471.042969 158.378906 471.042969 161.460938 Z M 484.949219 171.574219 L 484.949219 147.5625 L 479.84375 147.5625 L 479.84375 171.574219 Z M 503.558594 171.574219 C 510.34375 171.574219 512.324219 169.5 512.324219 163.738281 L 512.324219 161.328125 C 512.324219 155.5 510.34375 153.421875 503.558594 153.421875 L 497.480469 153.421875 C 490.726562 153.421875 488.746094 155.5 488.746094 161.292969 L 488.746094 163.738281 C 488.746094 169.5 490.726562 171.574219 497.480469 171.574219 Z M 507.320312 163.605469 C 507.320312 166.617188 506.515625 167.355469 502.886719 167.355469 L 498.152344 167.355469 C 494.589844 167.355469 493.75 166.617188 493.75 163.605469 L 493.75 161.460938 C 493.75 158.378906 494.589844 157.710938 498.152344 157.710938 L 502.886719 157.710938 C 506.515625 157.710938 507.320312 158.378906 507.320312 161.460938 Z M 532.984375 177 C 537.515625 177 539.429688 175.292969 539.429688 171.238281 L 539.429688 160.65625 C 539.429688 155.5 537.515625 153.421875 531.503906 153.421875 L 523.375 153.421875 C 517.160156 153.421875 515.515625 155.128906 515.515625 160.65625 L 515.515625 163.4375 C 515.515625 167.824219 517.566406 169.5 523.140625 169.5 L 534.5625 169.5 L 534.5625 170.972656 C 534.5625 172.410156 533.988281 172.914062 532.511719 172.914062 L 525.558594 172.914062 L 525.558594 177 Z M 534.5625 165.613281 L 523.441406 165.613281 C 521.125 165.613281 520.421875 165.109375 520.421875 163.167969 L 520.421875 160.789062 C 520.421875 158.378906 521.125 157.675781 523.441406 157.675781 L 531.304688 157.675781 C 533.753906 157.675781 534.5625 158.347656 534.5625 160.757812 Z M 547.761719 153.421875 L 542.824219 153.421875 L 542.824219 163.066406 C 542.824219 167.457031 544.871094 169.5 550.316406 169.5 L 561.800781 169.5 L 561.800781 170.972656 C 561.800781 172.480469 561.164062 172.914062 559.785156 172.914062 L 552.933594 172.914062 L 552.933594 177 L 560.222656 177 C 564.757812 177 566.671875 175.292969 566.671875 171.238281 L 566.671875 153.421875 L 561.800781 153.421875 L 561.800781 165.546875 L 550.617188 165.546875 C 548.566406 165.546875 547.761719 164.875 547.761719 162.867188 Z M 602.34375 165.042969 C 609.027344 165.042969 610.941406 163.535156 610.941406 158.078125 L 610.941406 156.101562 C 610.941406 150.710938 608.894531 148.734375 602.34375 148.734375 L 584.003906 148.734375 L 584.003906 171.574219 L 589.109375 171.574219 L 589.109375 165.042969 Z M 605.835938 157.878906 C 605.835938 160.289062 604.964844 160.925781 602.277344 160.925781 L 589.109375 160.925781 L 589.109375 153.121094 L 602.210938 153.121094 C 604.964844 153.121094 605.835938 153.824219 605.835938 156.304688 Z M 619.238281 171.574219 L 619.238281 153.890625 L 614.132812 153.890625 L 614.132812 171.574219 Z M 617.492188 152.382812 C 618.769531 152.382812 619.238281 151.914062 619.238281 150.84375 L 619.238281 148.902344 C 619.238281 147.828125 618.769531 147.394531 617.492188 147.394531 L 615.847656 147.394531 C 614.605469 147.394531 614.132812 147.828125 614.132812 148.902344 L 614.132812 150.84375 C 614.132812 151.914062 614.605469 152.382812 615.847656 152.382812 Z M 628.308594 171.574219 L 628.308594 147.5625 L 623.203125 147.5625 L 623.203125 171.574219 Z M 646.917969 171.574219 C 653.703125 171.574219 655.683594 169.5 655.683594 163.738281 L 655.683594 161.328125 C 655.683594 155.5 653.703125 153.421875 646.917969 153.421875 L 640.835938 153.421875 C 634.085938 153.421875 632.105469 155.5 632.105469 161.292969 L 632.105469 163.738281 C 632.105469 169.5 634.085938 171.574219 640.835938 171.574219 Z M 650.679688 163.605469 C 650.679688 166.617188 649.871094 167.355469 646.246094 167.355469 L 641.507812 167.355469 C 637.949219 167.355469 637.109375 166.617188 637.109375 163.605469 L 637.109375 161.460938 C 637.109375 158.378906 637.949219 157.710938 641.507812 157.710938 L 646.246094 157.710938 C 649.871094 157.710938 650.679688 158.378906 650.679688 161.460938 Z M 665.625 171.574219 L 665.625 157.476562 L 671.371094 157.476562 L 671.371094 153.421875 L 665.625 153.421875 L 665.625 148.300781 L 660.519531 148.300781 L 660.519531 153.421875 L 657.96875 153.421875 L 657.96875 157.476562 L 660.519531 157.476562 L 660.519531 171.574219 Z M 665.625 171.574219 "/>
<path fill-rule="nonzero" fill="rgb(38.038635%, 38.038635%, 37.254333%)" fill-opacity="1" d="M 5.292969 33.035156 C 2.359375 33.035156 0 35.394531 0 38.328125 L 0 127.34375 C 0 130.277344 2.359375 132.636719 5.292969 132.636719 L 47.472656 132.636719 C 47.476562 132.628906 55.742188 120.601562 56.578125 117 C 57.652344 112.347656 53.429688 108.734375 55.242188 104.046875 C 58.261719 96.21875 99.101562 84.289062 99.128906 84.28125 L 99.128906 38.328125 C 99.128906 35.394531 96.765625 33.035156 93.835938 33.035156 Z M 47.472656 132.636719 L 47.46875 132.640625 C 47.472656 132.640625 47.472656 132.636719 47.472656 132.636719 Z M 96.085938 96.511719 C 91.039062 96.757812 78.597656 106.253906 72.300781 114.179688 C 69.378906 117.855469 67.496094 132.460938 65.707031 132.628906 L 65.707031 132.636719 C 48.902344 132.636719 89.449219 132.636719 93.835938 132.636719 C 96.765625 132.636719 99.128906 130.277344 99.128906 127.34375 L 99.128906 99.890625 C 99.125 99.898438 99.117188 99.910156 99.113281 99.921875 C 99.113281 99.921875 98.78125 97.046875 96.992188 96.585938 C 96.726562 96.515625 96.421875 96.492188 96.085938 96.511719 Z M 96.085938 96.511719 "/>
</svg>
